Coordinates
version=1
nRows=5
nColumns=40
inDegrees=yes

Units are S.I. units (second, meters, Newtons, ...)
Angles are in degrees.

endheader
time	pelvis_tilt	pelvis_list	pelvis_rotation	pelvis_tx	pelvis_ty	pelvis_tz	hip_flexion_r	hip_adduction_r	hip_rotation_r	knee_angle_r	knee_angle_r_beta	ankle_angle_r	subtalar_angle_r	mtp_angle_r	hip_flexion_l	hip_adduction_l	hip_rotation_l	knee_angle_l	knee_angle_l_beta	ankle_angle_l	subtalar_angle_l	mtp_angle_l	lumbar_extension	lumbar_bending	lumbar_rotation	arm_flex_r	arm_add_r	arm_rot_r	elbow_flex_r	pro_sup_r	wrist_flex_r	wrist_dev_r	arm_flex_l	arm_add_l	arm_rot_l	elbow_flex_l	pro_sup_l	wrist_flex_l	wrist_dev_l
     15.14114286	     -5.00172053	     -6.62951439	      8.63178047	      1.09474008	      0.91392913	      0.47076904	     -4.18850047	      7.20852316	    -21.26054792	      4.98617203	      4.98617203	     16.15722623	      6.54847364	     -5.05698034	     36.04849875	     -7.24319566	     -3.45141055	     18.23978891	     18.23978891	      6.40779007	     -7.19818756	     10.91161428	     -7.32956958	      7.20875798	      4.98063053	     50.35605295	    -17.03233401	     -3.72274682	     85.70242479	     44.56676900	      0.00000000	      0.00000000	    -20.37108739	     -6.21699730	      7.04404064	     24.26328757	     44.92098835	      0.00000000	      0.00000000
     15.15228571	     -5.19584547	     -6.44937845	      8.31141749	      1.09561526	      0.91252844	      0.46907068	     -4.61080895	      6.85713888	    -20.92924741	      5.22725448	      5.22725448	     16.69858690	      6.61881681	     -4.90309049	     35.84686350	     -7.00074825	     -3.87795452	     18.91634007	     18.91634007	      5.86602781	     -8.35014357	     10.81172509	     -7.00470082	      6.91187522	      5.04749755	     50.92265452	    -16.76532536	     -3.73447463	     87.13205492	     44.52788606	      0.00000000	      0.00000000	    -21.18044440	     -6.03312090	      7.10722410	     24.06582625	     44.89775070	      0.00000000	      0.00000000
     15.16342857	     -5.36180407	     -6.38395558	      8.03745365	      1.09653228	      0.91116189	      0.46721416	     -4.78072083	      6.51408342	    -20.83399823	      6.09490631	      6.09490631	     18.18119640	      6.87453888	     -2.42426204	     35.46087369	     -6.68923405	     -3.38992932	     19.23961847	     19.23961847	      3.95079986	    -10.88113696	      8.74502745	     -6.86147394	      6.76714784	      5.73152897	     50.05776889	    -17.25238729	     -4.38491903	     92.47358533	     44.43828162	      0.00000000	      0.00000000	    -21.66333469	     -6.16482020	      7.57773752	     24.28196982	     44.84440931	      0.00000000	      0.00000000
     15.17457143	     -5.49698469	     -6.20466600	      7.70421755	      1.09754878	      0.90989212	      0.46536978	     -5.03088308	      6.06591953	    -20.46299188	      6.83660029	      6.83660029	     19.05078947	      6.68803438	     -1.47610692	     35.17747901	     -6.42820273	     -3.28184674	     19.97726151	     19.97726151	      2.79277775	    -12.67658506	      8.07635856	     -6.67553428	      6.50617377	      5.75591337	     50.16508563	    -16.95286360	     -4.35693905	     94.91921594	     44.41404004	      0.00000000	      0.00000000	    -22.17024844	     -6.03276994	      8.00616061	     24.15905702	     44.79990496	      0.00000000	      0.00000000
     15.18571429	     -5.51685751	     -6.03060444	      7.34797746	      1.09865151	      0.90878853	      0.46357321	     -5.38370477	      5.62596707	    -20.03589309	      7.58439846	      7.58439846	     19.54294996	      6.47197078	     -1.48569456	     34.95845758	     -6.32261927	     -3.38278116	     21.09222791	     21.09222791	      2.26226362	    -13.70683416	      8.00922474	     -6.57637799	      6.25339621	      5.51019853	     50.48724678	    -16.36743443	     -4.20175008	     96.29742375	     44.37424150	      0.00000000	      0.00000000	    -22.63321794	     -5.82722941	      8.09062634	     23.98050283	     44.78372584	      0.00000000	      0.00000000
